<svg xmlns="http://www.w3.org/2000/svg" width="336.219" height="313.063" viewBox="0 0 336.219 313.063">
  <defs>
    <style>
      .cls-1 {
        fill: #fff;
        fill-rule: evenodd;
      }
    </style>
  </defs>
  <path id=":5" class="cls-1" d="M237.465,227.034v105.5H319.8v-105.5H237.465Zm35.5,29.58H284.3v46.342H272.961V256.614Zm97.614-29.58v105.5h82.331v-105.5H370.575Zm35.5,29.58H417.41v46.342H406.071V256.614ZM231.056,353.728a8.52,8.52,0,0,0-.493,3.451q-0.486,1.479-.493,8.874a238.691,238.691,0,0,0,8.134,61.625,167.323,167.323,0,0,0,25.143,54.477,131.971,131.971,0,0,0,43.138,38.7q26.125,14.79,62.611,14.79,26.622,0,46.095-8.874t32.785-19.72a126.425,126.425,0,0,0,14.3-13.557,151.262,151.262,0,0,0,11.832-15.037v61.625H566.3v-133.6l-144.942-59.16a237.218,237.218,0,0,1-1.726,27.855,96.211,96.211,0,0,1-6.9,26.622,50.83,50.83,0,0,1-14.543,19.72q-9.37,7.637-24.65,7.641-22.185,0-35.5-19.227t-13.311-56.2h-93.67Zm52.751,31.552q0,8.874,3.451,24.157a92.567,92.567,0,0,0,12.818,29.827q9.358,14.535,25.636,25.143t41.905,10.6q25.627,0,41.658-10.846t24.9-23.664a108.248,108.248,0,0,0,14.79-34.017l77.894,31.552v69.02H515.024V445.919l-59.16-23.664q-6.91,19.227-18.241,32.538-9.868,12.318-26.869,22.678t-43.137,10.353q-25.143,0-43.384-10.6A98.091,98.091,0,0,1,294.406,451.1,108.185,108.185,0,0,1,277.4,417.818q-5.432-17.748-5.423-32.538h11.832Z" transform="translate(-230.062 -227.031)"/>
</svg>
