<?xml version="1.0" standalone="no"?>
<!DOCTYPE svg PUBLIC "-//W3C//DTD SVG 20010904//EN"
 "http://www.w3.org/TR/2001/REC-SVG-20010904/DTD/svg10.dtd">
<svg version="1.0" xmlns="http://www.w3.org/2000/svg"
 width="512.000000pt" height="512.000000pt" viewBox="0 0 512.000000 512.000000"
 preserveAspectRatio="xMidYMid meet">
<metadata>
Created by potrace 1.11, written by Peter Selinger 2001-2013
</metadata>
<g transform="translate(0.000000,512.000000) scale(0.100000,-0.100000)"
fill="#000000" stroke="none">
<path d="M1 4033 c1 -599 4 -1072 8 -1053 l6 35 706 3 706 2 7 -129 c24 -462
155 -764 398 -922 96 -61 165 -81 308 -86 137 -5 225 9 303 48 207 105 352
346 407 679 20 120 40 341 40 443 0 43 3 58 13 54 31 -12 2040 -833 2105 -859
l72 -31 0 -1008 0 -1009 -695 0 -695 0 0 463 c-1 438 -2 461 -18 441 -9 -12
-45 -57 -79 -100 -172 -220 -400 -404 -670 -542 -292 -148 -477 -191 -825
-192 -553 0 -950 151 -1341 510 -258 238 -499 646 -612 1039 -66 230 -115 491
-134 716 -5 61 -9 -412 -10 -1217 l-1 -1318 2560 0 2560 0 0 2560 0 2560
-2560 0 -2560 0 1 -1087z m1357 100 l-3 -798 -620 0 -620 0 -3 798 -2 797 625
0 625 0 -2 -797z m2010 0 l-3 -798 -620 0 -620 0 -3 798 -2 797 625 0 625 0
-2 -797z"/>
<path d="M650 4130 l0 -350 85 0 85 0 0 350 0 350 -85 0 -85 0 0 -350z"/>
<path d="M2660 4130 l0 -350 85 0 85 0 0 350 0 350 -85 0 -85 0 0 -350z"/>
<path d="M636 2531 c-9 -14 13 -206 36 -311 109 -511 412 -912 839 -1114 109
-52 242 -89 383 -106 120 -15 376 -7 486 15 244 49 455 169 665 380 155 154
229 269 356 552 l14 31 445 -178 445 -178 3 -461 2 -461 85 0 85 0 -2 522 -3
522 -575 233 c-316 128 -580 233 -586 233 -7 0 -15 -17 -19 -37 -19 -104 -125
-339 -210 -468 -92 -137 -314 -334 -463 -409 -160 -81 -313 -111 -552 -110
-189 0 -289 14 -420 59 -321 109 -614 417 -743 780 -34 96 -73 278 -88 408
l-13 107 -82 0 c-46 0 -85 -4 -88 -9z"/>
</g>
</svg>
