<?xml version="1.0" standalone="no"?>
<!DOCTYPE svg PUBLIC "-//W3C//DTD SVG 20010904//EN"
 "http://www.w3.org/TR/2001/REC-SVG-20010904/DTD/svg10.dtd">
<svg version="1.0" xmlns="http://www.w3.org/2000/svg"
 width="260.000000pt" height="260.000000pt" viewBox="0 0 260.000000 260.000000"
 preserveAspectRatio="xMidYMid meet">
<metadata>
Created by potrace 1.11, written by Peter Selinger 2001-2013
</metadata>
<g transform="translate(0.000000,260.000000) scale(0.100000,-0.100000)"
fill="#000000" stroke="none">
<path d="M0 1300 l0 -1300 1300 0 1300 0 0 1300 0 1300 -1300 0 -1300 0 0
-1300z m783 158 c44 -98 84 -178 87 -178 4 0 43 80 87 178 l80 177 76 3 c58 2
79 -1 82 -11 7 -18 -296 -667 -317 -681 -10 -6 -20 -8 -23 -4 -17 17 -315 674
-310 685 3 10 24 13 81 11 l77 -3 80 -177z m757 -48 c3 -143 9 -232 17 -245
33 -58 104 -80 161 -51 54 28 57 41 62 291 l5 230 75 0 75 0 0 -250 0 -250
-27 -46 c-116 -197 -391 -194 -493 6 l-30 59 -3 228 c-3 172 -1 233 9 244 9
11 29 14 78 12 l66 -3 5 -225z"/>
</g>
</svg>
